<svg xmlns="http://www.w3.org/2000/svg" xmlns:xlink="http://www.w3.org/1999/xlink" width="340" zoomAndPan="magnify" viewBox="0 0 255 104.249996" height="139" preserveAspectRatio="xMidYMid meet" version="1.0"><defs><g/><clipPath id="61353865f4"><path d="M 1.285156 0.0664062 L 238.820312 0.0664062 L 238.820312 93.570312 L 1.285156 93.570312 Z M 1.285156 0.0664062 " clip-rule="nonzero"/></clipPath><clipPath id="29bceaad81"><path d="M 4.265625 0.0664062 L 235.84375 0.0664062 C 237.488281 0.0664062 238.820312 1.402344 238.820312 3.046875 L 238.820312 90.589844 C 238.820312 92.234375 237.488281 93.570312 235.84375 93.570312 L 4.265625 93.570312 C 2.617188 93.570312 1.285156 92.234375 1.285156 90.589844 L 1.285156 3.046875 C 1.285156 1.402344 2.617188 0.0664062 4.265625 0.0664062 Z M 4.265625 0.0664062 " clip-rule="nonzero"/></clipPath><clipPath id="817fa945be"><path d="M 1.285156 0.0703125 L 238.828125 0.0703125 L 238.828125 93.894531 L 1.285156 93.894531 Z M 1.285156 0.0703125 " clip-rule="nonzero"/></clipPath><clipPath id="062930722d"><path d="M 4.261719 0.0703125 L 235.835938 0.0703125 C 237.480469 0.0703125 238.816406 1.402344 238.816406 3.046875 L 238.816406 90.589844 C 238.816406 92.234375 237.480469 93.566406 235.835938 93.566406 L 4.261719 93.566406 C 2.617188 93.566406 1.285156 92.234375 1.285156 90.589844 L 1.285156 3.046875 C 1.285156 1.402344 2.617188 0.0703125 4.261719 0.0703125 Z M 4.261719 0.0703125 " clip-rule="nonzero"/></clipPath><clipPath id="809d0c4f50"><path d="M 97.613281 75.84375 L 253.765625 75.84375 L 253.765625 102.957031 L 97.613281 102.957031 Z M 97.613281 75.84375 " clip-rule="nonzero"/></clipPath></defs><g clip-path="url(#61353865f4)"><g clip-path="url(#29bceaad81)"><path fill="#ffffff" d="M 1.285156 0.0664062 L 238.820312 0.0664062 L 238.820312 93.570312 L 1.285156 93.570312 Z M 1.285156 0.0664062 " fill-opacity="1" fill-rule="nonzero"/></g></g><g clip-path="url(#817fa945be)"><g clip-path="url(#062930722d)"><path stroke-linecap="butt" transform="matrix(0.744643, 0, 0, 0.744643, 1.28512, 0.068669)" fill="none" stroke-linejoin="miter" d="M 3.997351 0.00220712 L 314.984335 0.00220712 C 317.192819 0.00220712 318.986883 1.791026 318.986883 3.99951 L 318.986883 121.563217 C 318.986883 123.771701 317.192819 125.56052 314.984335 125.56052 L 3.997351 125.56052 C 1.788868 125.56052 0.0000488554 123.771701 0.0000488554 121.563217 L 0.0000488554 3.99951 C 0.0000488554 1.791026 1.788868 0.00220712 3.997351 0.00220712 Z M 3.997351 0.00220712 " stroke="#1a1a1a" stroke-width="14" stroke-opacity="1" stroke-miterlimit="4"/></g></g><g fill="#1a1a1a" fill-opacity="1"><g transform="translate(39.052472, 61.873541)"><g><path d="M 7.90625 -6.796875 L 5.859375 -6.796875 L 5.859375 -26.640625 L 7.90625 -26.640625 Z M 38.765625 -23.328125 L 28.09375 -23.328125 L 28.09375 -11.40625 C 31.113281 -9.71875 33.992188 -7.816406 36.734375 -5.703125 C 37.035156 -5.515625 37.347656 -5.335938 37.671875 -5.171875 L 36.375 -3.703125 C 36.125 -3.867188 35.878906 -4.046875 35.640625 -4.234375 C 33.222656 -6.023438 30.707031 -7.679688 28.09375 -9.203125 L 28.09375 -6.265625 C 28.125 -5.316406 28.003906 -4.378906 27.734375 -3.453125 C 27.460938 -2.535156 26.972656 -1.75 26.265625 -1.09375 C 25.640625 -0.394531 24.882812 0.0859375 24 0.359375 C 23.125 0.640625 22.222656 0.765625 21.296875 0.734375 C 19.421875 0.703125 17.851562 0.03125 16.59375 -1.28125 C 15.332031 -2.601562 14.703125 -4.195312 14.703125 -6.0625 C 14.671875 -8.320312 15.472656 -10.222656 17.109375 -11.765625 C 18.703125 -13.265625 20.585938 -13.820312 22.765625 -13.4375 C 23.929688 -13.332031 25.046875 -13.019531 26.109375 -12.5 L 26.109375 -23.328125 L 13.96875 -23.328125 L 13.96875 -25.375 L 26.109375 -25.375 L 26.109375 -30.703125 L 28.09375 -30.703125 L 28.09375 -25.375 L 38.765625 -25.375 Z M 21.671875 -11.609375 C 20.421875 -11.628906 19.320312 -11.25 18.375 -10.46875 C 17.226562 -9.21875 16.679688 -7.75 16.734375 -6.0625 C 16.734375 -4.757812 17.160156 -3.613281 18.015625 -2.625 C 18.867188 -1.632812 19.960938 -1.125 21.296875 -1.09375 C 22.679688 -1.070312 23.90625 -1.507812 24.96875 -2.40625 C 25.882812 -3.539062 26.265625 -4.828125 26.109375 -6.265625 L 26.109375 -10.296875 C 24.992188 -10.898438 23.828125 -11.335938 22.609375 -11.609375 Z M 21.671875 -11.609375 "/></g></g><g transform="translate(80.752469, 61.873541)"><g><path d="M 21.296875 0 C 20.566406 0 19.84375 -0.078125 19.125 -0.234375 C 18.40625 -0.398438 17.722656 -0.664062 17.078125 -1.03125 C 16.441406 -1.40625 15.960938 -1.929688 15.640625 -2.609375 C 14.710938 -4.148438 14.832031 -5.671875 16 -7.171875 C 17.988281 -9.390625 21.289062 -10.148438 25.90625 -9.453125 L 25.90625 -7.5 C 21.71875 -8.226562 18.90625 -7.679688 17.46875 -5.859375 C 16.894531 -5.046875 16.828125 -4.257812 17.265625 -3.5 C 17.648438 -2.957031 18.144531 -2.570312 18.75 -2.34375 C 19.363281 -2.113281 19.992188 -1.976562 20.640625 -1.9375 C 21.296875 -1.894531 21.941406 -1.925781 22.578125 -2.03125 C 23.222656 -2.144531 23.84375 -2.335938 24.4375 -2.609375 C 25.382812 -2.984375 26.171875 -3.578125 26.796875 -4.390625 C 27.421875 -5.210938 27.742188 -6.128906 27.765625 -7.140625 C 27.796875 -8.160156 27.664062 -9.144531 27.375 -10.09375 C 26.820312 -11.8125 25.765625 -12.988281 24.203125 -13.625 C 22.648438 -14.257812 20.988281 -14.585938 19.21875 -14.609375 C 17.457031 -14.640625 15.773438 -14.265625 14.171875 -13.484375 L 12.953125 -14.90625 C 13.765625 -15.613281 14.59375 -16.304688 15.4375 -16.984375 C 16.769531 -18.117188 18.113281 -19.242188 19.46875 -20.359375 C 20.414062 -21.171875 21.363281 -21.972656 22.3125 -22.765625 C 22.96875 -23.304688 23.609375 -23.847656 24.234375 -24.390625 C 24.828125 -24.910156 25.425781 -25.414062 26.03125 -25.90625 C 26.101562 -25.957031 26.179688 -26.023438 26.265625 -26.109375 L 5.5 -26.109375 L 5.5 -27.9375 L 31.609375 -27.9375 C 30.054688 -26.664062 28.519531 -25.390625 27 -24.109375 C 25.832031 -23.160156 24.679688 -22.210938 23.546875 -21.265625 C 22.703125 -20.578125 21.875 -19.882812 21.0625 -19.1875 C 20.488281 -18.71875 19.929688 -18.269531 19.390625 -17.84375 C 18.785156 -17.351562 18.203125 -16.863281 17.640625 -16.375 C 19.179688 -16.53125 20.742188 -16.5 22.328125 -16.28125 C 23.921875 -16.070312 25.363281 -15.484375 26.65625 -14.515625 C 27.945312 -13.554688 28.796875 -12.273438 29.203125 -10.671875 C 29.640625 -9.421875 29.804688 -8.113281 29.703125 -6.75 C 29.609375 -5.394531 29.144531 -4.179688 28.3125 -3.109375 C 27.488281 -2.035156 26.441406 -1.242188 25.171875 -0.734375 C 23.921875 -0.210938 22.628906 0.03125 21.296875 0 Z M 21.296875 0 "/></g></g><g transform="translate(118.21731, 61.873541)"><g><path d="M 35.796875 -20.765625 L 22.921875 -20.765625 C 23.628906 -18.160156 24.5 -15.597656 25.53125 -13.078125 C 25.644531 -12.828125 25.769531 -12.582031 25.90625 -12.34375 L 24.234375 -11.40625 C 24.046875 -11.695312 23.851562 -12.007812 23.65625 -12.34375 C 22.570312 -15.113281 21.640625 -17.921875 20.859375 -20.765625 L 5.296875 -20.765625 L 5.296875 -22.8125 L 20.359375 -22.8125 C 19.765625 -25.226562 19.273438 -27.671875 18.890625 -30.140625 C 18.835938 -30.492188 18.785156 -30.859375 18.734375 -31.234375 C 19.390625 -31.285156 20.054688 -31.351562 20.734375 -31.4375 C 20.785156 -31.144531 20.851562 -30.832031 20.9375 -30.5 C 21.3125 -27.925781 21.800781 -25.363281 22.40625 -22.8125 L 35.796875 -22.8125 Z M 23.5 0.890625 C 23.175781 0.835938 22.222656 0.695312 20.640625 0.46875 C 19.066406 0.238281 17.066406 -0.679688 14.640625 -2.296875 C 12.210938 -3.910156 10.453125 -6.09375 9.359375 -8.84375 C 9.304688 -9.132812 9.238281 -9.429688 9.15625 -9.734375 C 9.757812 -9.921875 10.375 -10.109375 11 -10.296875 C 11.101562 -9.972656 11.222656 -9.660156 11.359375 -9.359375 C 11.710938 -8.171875 12.296875 -7.097656 13.109375 -6.140625 C 13.921875 -5.191406 14.84375 -4.378906 15.875 -3.703125 C 16.914062 -3.023438 18.019531 -2.472656 19.1875 -2.046875 C 20.351562 -1.628906 21.910156 -1.3125 23.859375 -1.09375 Z M 23.5 0.890625 "/></g></g><g transform="translate(159.34719, 61.873541)"><g><path d="M 12.5 0.53125 L 11.40625 0.53125 C 9.96875 0.09375 8.78125 -0.691406 7.84375 -1.828125 C 6.90625 -2.972656 6.242188 -4.265625 5.859375 -5.703125 C 5.429688 -7.390625 5.34375 -9.078125 5.59375 -10.765625 C 5.851562 -12.460938 6.5 -14.019531 7.53125 -15.4375 C 8.832031 -17.332031 10.476562 -18.8125 12.46875 -19.875 C 11.40625 -23.132812 10.441406 -26.742188 9.578125 -30.703125 C 10.222656 -30.816406 10.882812 -30.941406 11.5625 -31.078125 C 12.351562 -27.273438 13.25 -23.828125 14.25 -20.734375 C 16.039062 -21.460938 17.898438 -21.910156 19.828125 -22.078125 C 21.515625 -22.265625 23.171875 -22.195312 24.796875 -21.875 C 25.691406 -24.75 26.617188 -27.9375 27.578125 -31.4375 C 28.203125 -31.25 28.8125 -31.0625 29.40625 -30.875 C 28.457031 -27.445312 27.601562 -24.320312 26.84375 -21.5 C 30.125 -20.414062 32.6875 -18.394531 34.53125 -15.4375 C 35.863281 -13.101562 36.546875 -10.222656 36.578125 -6.796875 C 35.890625 -6.847656 35.207031 -6.914062 34.53125 -7 C 34.507812 -9.957031 33.898438 -12.472656 32.703125 -14.546875 C 31.179688 -17.097656 28.984375 -18.804688 26.109375 -19.671875 C 25.640625 -18.234375 25.160156 -16.789062 24.671875 -15.34375 C 24.191406 -13.90625 23.671875 -12.472656 23.109375 -11.046875 C 22.554688 -9.628906 21.953125 -8.234375 21.296875 -6.859375 C 20.648438 -5.492188 19.863281 -4.195312 18.9375 -2.96875 C 17.332031 -0.75 15.1875 0.414062 12.5 0.53125 Z M 22.03125 -20.234375 C 21.351562 -20.265625 20.6875 -20.195312 20.03125 -20.03125 C 18.238281 -19.925781 16.515625 -19.546875 14.859375 -18.890625 C 14.921875 -18.703125 14.988281 -18.515625 15.0625 -18.328125 C 16.34375 -14.710938 17.90625 -11.25 19.75 -7.9375 C 20.34375 -9.21875 20.882812 -10.507812 21.375 -11.8125 C 21.894531 -13.164062 22.390625 -14.523438 22.859375 -15.890625 C 23.335938 -17.265625 23.796875 -18.644531 24.234375 -20.03125 C 23.492188 -20.195312 22.757812 -20.265625 22.03125 -20.234375 Z M 18.578125 -6.0625 C 16.453125 -9.757812 14.6875 -13.601562 13.28125 -17.59375 C 13.21875 -17.757812 13.160156 -17.910156 13.109375 -18.046875 C 11.535156 -17.148438 10.234375 -15.910156 9.203125 -14.328125 C 7.492188 -11.859375 6.992188 -9.171875 7.703125 -6.265625 C 7.972656 -5.179688 8.429688 -4.1875 9.078125 -3.28125 C 9.734375 -2.375 10.628906 -1.769531 11.765625 -1.46875 C 12.910156 -1.300781 13.976562 -1.472656 14.96875 -1.984375 C 15.957031 -2.503906 16.789062 -3.203125 17.46875 -4.078125 C 17.90625 -4.671875 18.3125 -5.28125 18.6875 -5.90625 C 18.632812 -5.957031 18.597656 -6.007812 18.578125 -6.0625 Z M 18.578125 -6.0625 "/></g></g></g><g clip-path="url(#809d0c4f50)"><path fill="#ffffff" d="M 97.613281 75.84375 L 253.765625 75.84375 L 253.765625 102.957031 L 97.613281 102.957031 Z M 97.613281 75.84375 " fill-opacity="1" fill-rule="nonzero"/></g><g fill="#1a1a1a" fill-opacity="1"><g transform="translate(131.972091, 95.948018)"><g><path d="M 1.0625 -13.78125 L 10.890625 -13.78125 L 10.890625 -12.03125 L 7.015625 -12.03125 L 7.015625 0 L 4.9375 0 L 4.9375 -12.03125 L 1.0625 -12.03125 Z M 1.0625 -13.78125 "/></g></g></g><g fill="#1a1a1a" fill-opacity="1"><g transform="translate(143.92561, 95.948018)"><g><path d="M 2.6875 -5.796875 L 7.234375 -5.796875 C 7.203125 -7.617188 6.503906 -8.53125 5.140625 -8.53125 C 4.390625 -8.53125 3.8125 -8.3125 3.40625 -7.875 C 3.007812 -7.445312 2.769531 -6.753906 2.6875 -5.796875 Z M 2.6875 -4.34375 C 2.8125 -2.3125 3.84375 -1.296875 5.78125 -1.296875 C 6.625 -1.296875 7.539062 -1.488281 8.53125 -1.875 L 8.53125 -0.21875 C 7.488281 0.0507812 6.507812 0.1875 5.59375 0.1875 C 4.019531 0.1875 2.8125 -0.238281 1.96875 -1.09375 C 1.125 -1.945312 0.703125 -3.210938 0.703125 -4.890625 C 0.703125 -6.578125 1.082031 -7.847656 1.84375 -8.703125 C 2.601562 -9.566406 3.703125 -10 5.140625 -10 C 6.492188 -10 7.503906 -9.59375 8.171875 -8.78125 C 8.847656 -7.96875 9.1875 -6.703125 9.1875 -4.984375 C 9.1875 -4.816406 9.171875 -4.601562 9.140625 -4.34375 Z M 2.6875 -4.34375 "/></g></g></g><g fill="#1a1a1a" fill-opacity="1"><g transform="translate(153.908364, 95.948018)"><g><path d="M 0.703125 -4.90625 C 0.703125 -6.539062 1.097656 -7.796875 1.890625 -8.671875 C 2.679688 -9.554688 3.796875 -10 5.234375 -10 C 6.097656 -10 7.003906 -9.898438 7.953125 -9.703125 L 7.953125 -8.015625 C 7.066406 -8.304688 6.207031 -8.453125 5.375 -8.453125 C 4.5 -8.453125 3.847656 -8.171875 3.421875 -7.609375 C 2.992188 -7.046875 2.78125 -6.144531 2.78125 -4.90625 C 2.78125 -3.644531 3.003906 -2.738281 3.453125 -2.1875 C 3.910156 -1.632812 4.613281 -1.359375 5.5625 -1.359375 C 6.382812 -1.359375 7.210938 -1.53125 8.046875 -1.875 L 8.046875 -0.1875 C 7.171875 0.0625 6.296875 0.1875 5.421875 0.1875 C 3.910156 0.1875 2.742188 -0.238281 1.921875 -1.09375 C 1.109375 -1.957031 0.703125 -3.226562 0.703125 -4.90625 Z M 0.703125 -4.90625 "/></g></g></g><g fill="#1a1a1a" fill-opacity="1"><g transform="translate(163.228057, 95.948018)"><g/></g></g><g fill="#1a1a1a" fill-opacity="1"><g transform="translate(168.458873, 95.948018)"><g><path d="M 3.625 -5.1875 L 3.625 0 L 1.546875 0 L 1.546875 -13.78125 L 5.328125 -13.78125 C 7.253906 -13.78125 8.675781 -13.441406 9.59375 -12.765625 C 10.519531 -12.085938 10.984375 -11.066406 10.984375 -9.703125 C 10.984375 -6.691406 9.21875 -5.1875 5.6875 -5.1875 Z M 3.625 -6.8125 L 5.5 -6.8125 C 6.625 -6.8125 7.476562 -7.035156 8.0625 -7.484375 C 8.644531 -7.941406 8.9375 -8.617188 8.9375 -9.515625 C 8.9375 -11.234375 7.789062 -12.09375 5.5 -12.09375 L 3.625 -12.09375 Z M 3.625 -6.8125 "/></g></g></g><g fill="#1a1a1a" fill-opacity="1"><g transform="translate(180.044025, 95.948018)"><g><path d="M 4.84375 -10 C 6.425781 -10 7.507812 -9.71875 8.09375 -9.15625 C 8.6875 -8.59375 8.984375 -7.554688 8.984375 -6.046875 L 8.984375 0 L 7.140625 0 L 7.109375 -1.421875 L 7.078125 -1.421875 C 6.347656 -0.347656 5.257812 0.1875 3.8125 0.1875 C 2.945312 0.1875 2.242188 -0.0859375 1.703125 -0.640625 C 1.160156 -1.191406 0.890625 -1.925781 0.890625 -2.84375 C 0.890625 -3.945312 1.304688 -4.800781 2.140625 -5.40625 C 2.984375 -6.007812 4.265625 -6.3125 5.984375 -6.3125 L 7.015625 -6.3125 L 7.015625 -6.703125 C 7.015625 -7.367188 6.859375 -7.832031 6.546875 -8.09375 C 6.234375 -8.351562 5.664062 -8.484375 4.84375 -8.484375 C 3.863281 -8.484375 2.734375 -8.242188 1.453125 -7.765625 L 1.453125 -9.4375 C 2.617188 -9.8125 3.75 -10 4.84375 -10 Z M 7.015625 -4.9375 L 5.984375 -4.9375 C 4.953125 -4.9375 4.175781 -4.765625 3.65625 -4.421875 C 3.132812 -4.078125 2.875 -3.609375 2.875 -3.015625 C 2.875 -2.554688 3.007812 -2.175781 3.28125 -1.875 C 3.5625 -1.570312 3.890625 -1.421875 4.265625 -1.421875 C 5.109375 -1.421875 5.773438 -1.679688 6.265625 -2.203125 C 6.765625 -2.722656 7.015625 -3.4375 7.015625 -4.34375 Z M 7.015625 -4.9375 "/></g></g></g><g fill="#1a1a1a" fill-opacity="1"><g transform="translate(190.303054, 95.948018)"><g><path d="M 7.765625 -8.203125 L 7.390625 -8.203125 C 6.035156 -8.203125 5.035156 -7.914062 4.390625 -7.34375 C 3.742188 -6.769531 3.421875 -5.894531 3.421875 -4.71875 L 3.421875 0 L 1.359375 0 L 1.359375 -9.796875 L 3.328125 -9.796875 L 3.328125 -7.921875 L 3.375 -7.921875 C 3.78125 -8.492188 4.34375 -8.945312 5.0625 -9.28125 C 5.78125 -9.625 6.554688 -9.796875 7.390625 -9.796875 L 7.765625 -9.796875 Z M 7.765625 -8.203125 "/></g></g></g><g fill="#1a1a1a" fill-opacity="1"><g transform="translate(199.051777, 95.948018)"><g><path d="M 4.84375 -9.4375 L 8.234375 -9.4375 L 8.234375 -7.921875 L 4.84375 -7.921875 L 4.84375 -3.390625 C 4.84375 -2.546875 4.941406 -1.988281 5.140625 -1.71875 C 5.347656 -1.457031 5.753906 -1.328125 6.359375 -1.328125 C 6.921875 -1.328125 7.453125 -1.40625 7.953125 -1.5625 L 7.953125 0 C 7.335938 0.125 6.679688 0.1875 5.984375 0.1875 C 4.816406 0.1875 4.003906 -0.0546875 3.546875 -0.546875 C 3.097656 -1.046875 2.875 -1.929688 2.875 -3.203125 L 2.875 -7.921875 L 0.890625 -7.921875 L 0.890625 -9.4375 L 2.875 -9.4375 L 2.875 -13.015625 L 4.84375 -13.015625 Z M 4.84375 -9.4375 "/></g></g></g><g fill="#1a1a1a" fill-opacity="1"><g transform="translate(208.647746, 95.948018)"><g><path d="M 2.8125 -9.796875 L 5.53125 -2.265625 L 5.5625 -2.265625 L 8.078125 -9.796875 L 10.125 -9.796875 L 6.453125 0 C 5.804688 1.707031 5.101562 2.859375 4.34375 3.453125 C 3.582031 4.046875 2.457031 4.34375 0.96875 4.34375 L 0.96875 2.796875 C 2.019531 2.796875 2.773438 2.617188 3.234375 2.265625 C 3.691406 1.910156 4.132812 1.15625 4.5625 0 L 0.703125 -9.796875 Z M 2.8125 -9.796875 "/></g></g></g></svg>