<svg xmlns="http://www.w3.org/2000/svg" xmlns:xlink="http://www.w3.org/1999/xlink" width="331" zoomAndPan="magnify" viewBox="0 0 248.25 100.499997" height="134" preserveAspectRatio="xMidYMid meet" version="1.0"><defs><g/><clipPath id="61735ef582"><path d="M 0.617188 0.0664062 L 238.679688 0.0664062 L 238.679688 93.777344 L 0.617188 93.777344 Z M 0.617188 0.0664062 " clip-rule="nonzero"/></clipPath><clipPath id="6bf9f30c38"><path d="M 3.601562 0.0664062 L 235.691406 0.0664062 C 237.339844 0.0664062 238.679688 1.40625 238.679688 3.054688 L 238.679688 90.789062 C 238.679688 92.441406 237.339844 93.777344 235.691406 93.777344 L 3.601562 93.777344 C 1.953125 93.777344 0.617188 92.441406 0.617188 90.789062 L 0.617188 3.054688 C 0.617188 1.40625 1.953125 0.0664062 3.601562 0.0664062 Z M 3.601562 0.0664062 " clip-rule="nonzero"/></clipPath><clipPath id="0586405619"><path d="M 0.617188 0.0703125 L 238.683594 0.0703125 L 238.683594 94 L 0.617188 94 Z M 0.617188 0.0703125 " clip-rule="nonzero"/></clipPath><clipPath id="545dccd4e9"><path d="M 3.601562 0.0703125 L 235.683594 0.0703125 C 237.335938 0.0703125 238.671875 1.40625 238.671875 3.054688 L 238.671875 90.789062 C 238.671875 92.4375 237.335938 93.773438 235.683594 93.773438 L 3.601562 93.773438 C 1.953125 93.773438 0.617188 92.4375 0.617188 90.789062 L 0.617188 3.054688 C 0.617188 1.40625 1.953125 0.0703125 3.601562 0.0703125 Z M 3.601562 0.0703125 " clip-rule="nonzero"/></clipPath><clipPath id="a93c517afe"><path d="M 139.394531 72.390625 L 246.566406 72.390625 L 246.566406 99.566406 L 139.394531 99.566406 Z M 139.394531 72.390625 " clip-rule="nonzero"/></clipPath></defs><g clip-path="url(#61735ef582)"><g clip-path="url(#6bf9f30c38)"><path fill="#ffffff" d="M 0.617188 0.0664062 L 238.679688 0.0664062 L 238.679688 93.777344 L 0.617188 93.777344 Z M 0.617188 0.0664062 " fill-opacity="1" fill-rule="nonzero"/></g></g><g clip-path="url(#0586405619)"><g clip-path="url(#545dccd4e9)"><path stroke-linecap="butt" transform="matrix(0.746287, 0, 0, 0.746287, 0.616568, 0.0688206)" fill="none" stroke-linejoin="miter" d="M 3.999793 0.00199907 L 314.98204 0.00199907 C 317.196126 0.00199907 318.986238 1.792111 318.986238 4.000963 L 318.986238 121.562124 C 318.986238 123.770976 317.196126 125.561088 314.98204 125.561088 L 3.999793 125.561088 C 1.790942 125.561088 0.000829579 123.770976 0.000829579 121.562124 L 0.000829579 4.000963 C 0.000829579 1.792111 1.790942 0.00199907 3.999793 0.00199907 Z M 3.999793 0.00199907 " stroke="#1a1a1a" stroke-width="14" stroke-opacity="1" stroke-miterlimit="4"/></g></g><g fill="#1a1a1a" fill-opacity="1"><g transform="translate(38.467316, 62.010166)"><g><path d="M 7.921875 -6.8125 L 5.875 -6.8125 L 5.875 -26.6875 L 7.921875 -26.6875 Z M 38.859375 -23.390625 L 28.15625 -23.390625 L 28.15625 -11.421875 C 31.175781 -9.734375 34.0625 -7.832031 36.8125 -5.71875 C 37.113281 -5.519531 37.425781 -5.34375 37.75 -5.1875 L 36.453125 -3.71875 C 36.203125 -3.875 35.957031 -4.050781 35.71875 -4.25 C 33.289062 -6.039062 30.769531 -7.695312 28.15625 -9.21875 L 28.15625 -6.28125 C 28.1875 -5.332031 28.066406 -4.394531 27.796875 -3.46875 C 27.523438 -2.539062 27.035156 -1.753906 26.328125 -1.109375 C 25.703125 -0.398438 24.945312 0.0859375 24.0625 0.359375 C 23.175781 0.640625 22.269531 0.765625 21.34375 0.734375 C 19.46875 0.703125 17.894531 0.03125 16.625 -1.28125 C 15.363281 -2.601562 14.734375 -4.203125 14.734375 -6.078125 C 14.703125 -8.335938 15.503906 -10.242188 17.140625 -11.796875 C 18.742188 -13.296875 20.632812 -13.851562 22.8125 -13.46875 C 23.988281 -13.363281 25.101562 -13.050781 26.15625 -12.53125 L 26.15625 -23.390625 L 14 -23.390625 L 14 -25.421875 L 26.15625 -25.421875 L 26.15625 -30.78125 L 28.15625 -30.78125 L 28.15625 -25.421875 L 38.859375 -25.421875 Z M 21.71875 -11.640625 C 20.46875 -11.660156 19.363281 -11.273438 18.40625 -10.484375 C 17.257812 -9.234375 16.71875 -7.765625 16.78125 -6.078125 C 16.78125 -4.773438 17.207031 -3.625 18.0625 -2.625 C 18.914062 -1.632812 20.007812 -1.128906 21.34375 -1.109375 C 22.726562 -1.078125 23.953125 -1.507812 25.015625 -2.40625 C 25.941406 -3.550781 26.320312 -4.84375 26.15625 -6.28125 L 26.15625 -10.328125 C 25.039062 -10.921875 23.875 -11.359375 22.65625 -11.640625 Z M 21.71875 -11.640625 "/></g></g><g transform="translate(80.259392, 62.010166)"><g><path d="M 21.34375 0 C 20.613281 0 19.882812 -0.078125 19.15625 -0.234375 C 18.4375 -0.398438 17.753906 -0.664062 17.109375 -1.03125 C 16.472656 -1.40625 15.992188 -1.929688 15.671875 -2.609375 C 14.742188 -4.160156 14.867188 -5.6875 16.046875 -7.1875 C 18.023438 -9.414062 21.328125 -10.175781 25.953125 -9.46875 L 25.953125 -7.515625 C 21.765625 -8.242188 18.953125 -7.695312 17.515625 -5.875 C 16.941406 -5.0625 16.875 -4.273438 17.3125 -3.515625 C 17.6875 -2.960938 18.179688 -2.570312 18.796875 -2.34375 C 19.410156 -2.113281 20.039062 -1.976562 20.6875 -1.9375 C 21.34375 -1.894531 21.988281 -1.925781 22.625 -2.03125 C 23.269531 -2.144531 23.890625 -2.335938 24.484375 -2.609375 C 25.441406 -2.992188 26.234375 -3.59375 26.859375 -4.40625 C 27.484375 -5.21875 27.804688 -6.132812 27.828125 -7.15625 C 27.859375 -8.175781 27.722656 -9.164062 27.421875 -10.125 C 26.878906 -11.832031 25.828125 -13.003906 24.265625 -13.640625 C 22.703125 -14.285156 21.035156 -14.617188 19.265625 -14.640625 C 17.492188 -14.671875 15.804688 -14.296875 14.203125 -13.515625 L 12.984375 -14.9375 C 13.796875 -15.644531 14.625 -16.335938 15.46875 -17.015625 C 16.800781 -18.160156 18.148438 -19.289062 19.515625 -20.40625 C 20.460938 -21.226562 21.414062 -22.03125 22.375 -22.8125 C 23.019531 -23.363281 23.65625 -23.910156 24.28125 -24.453125 C 24.882812 -24.960938 25.484375 -25.460938 26.078125 -25.953125 C 26.160156 -26.015625 26.242188 -26.082031 26.328125 -26.15625 L 5.515625 -26.15625 L 5.515625 -28 L 31.671875 -28 C 30.117188 -26.71875 28.582031 -25.4375 27.0625 -24.15625 C 25.894531 -23.207031 24.738281 -22.257812 23.59375 -21.3125 C 22.75 -20.625 21.921875 -19.925781 21.109375 -19.21875 C 20.535156 -18.757812 19.972656 -18.3125 19.421875 -17.875 C 18.828125 -17.382812 18.242188 -16.894531 17.671875 -16.40625 C 19.222656 -16.570312 20.796875 -16.546875 22.390625 -16.328125 C 23.984375 -16.109375 25.425781 -15.515625 26.71875 -14.546875 C 28.007812 -13.585938 28.859375 -12.300781 29.265625 -10.6875 C 29.703125 -9.4375 29.875 -8.128906 29.78125 -6.765625 C 29.6875 -5.410156 29.222656 -4.195312 28.390625 -3.125 C 27.554688 -2.050781 26.5 -1.253906 25.21875 -0.734375 C 23.96875 -0.210938 22.675781 0.03125 21.34375 0 Z M 21.34375 0 "/></g></g><g transform="translate(117.806961, 62.010166)"><g><path d="M 35.875 -20.8125 L 22.984375 -20.8125 C 23.691406 -18.195312 24.5625 -15.628906 25.59375 -13.109375 C 25.695312 -12.859375 25.816406 -12.613281 25.953125 -12.375 L 24.28125 -11.421875 C 24.09375 -11.722656 23.90625 -12.039062 23.71875 -12.375 C 22.625 -15.144531 21.6875 -17.957031 20.90625 -20.8125 L 5.3125 -20.8125 L 5.3125 -22.859375 L 20.40625 -22.859375 C 19.8125 -25.273438 19.320312 -27.722656 18.9375 -30.203125 C 18.882812 -30.554688 18.832031 -30.925781 18.78125 -31.3125 C 19.425781 -31.363281 20.09375 -31.429688 20.78125 -31.515625 C 20.832031 -31.210938 20.898438 -30.898438 20.984375 -30.578125 C 21.359375 -27.984375 21.847656 -25.410156 22.453125 -22.859375 L 35.875 -22.859375 Z M 23.546875 0.890625 C 23.222656 0.835938 22.269531 0.695312 20.6875 0.46875 C 19.113281 0.238281 17.109375 -0.679688 14.671875 -2.296875 C 12.234375 -3.921875 10.472656 -6.109375 9.390625 -8.859375 C 9.335938 -9.160156 9.269531 -9.457031 9.1875 -9.75 C 9.78125 -9.945312 10.390625 -10.140625 11.015625 -10.328125 C 11.128906 -10.003906 11.253906 -9.691406 11.390625 -9.390625 C 11.742188 -8.191406 12.328125 -7.113281 13.140625 -6.15625 C 13.960938 -5.207031 14.890625 -4.390625 15.921875 -3.703125 C 16.953125 -3.023438 18.050781 -2.472656 19.21875 -2.046875 C 20.394531 -1.628906 21.960938 -1.316406 23.921875 -1.109375 Z M 23.546875 0.890625 "/></g></g><g transform="translate(159.027661, 62.010166)"><g><path d="M 12.53125 0.53125 L 11.421875 0.53125 C 9.984375 0.09375 8.796875 -0.691406 7.859375 -1.828125 C 6.921875 -2.972656 6.257812 -4.269531 5.875 -5.71875 C 5.4375 -7.40625 5.347656 -9.097656 5.609375 -10.796875 C 5.867188 -12.492188 6.515625 -14.050781 7.546875 -15.46875 C 8.859375 -17.375 10.503906 -18.859375 12.484375 -19.921875 C 11.421875 -23.179688 10.457031 -26.800781 9.59375 -30.78125 C 10.25 -30.882812 10.914062 -31.003906 11.59375 -31.140625 C 12.382812 -27.328125 13.28125 -23.875 14.28125 -20.78125 C 16.082031 -21.507812 17.945312 -21.957031 19.875 -22.125 C 21.5625 -22.3125 23.222656 -22.242188 24.859375 -21.921875 C 25.753906 -24.804688 26.679688 -28.003906 27.640625 -31.515625 C 28.265625 -31.316406 28.875 -31.125 29.46875 -30.9375 C 28.519531 -27.507812 27.664062 -24.378906 26.90625 -21.546875 C 30.195312 -20.460938 32.765625 -18.4375 34.609375 -15.46875 C 35.941406 -13.125 36.625 -10.238281 36.65625 -6.8125 C 35.976562 -6.863281 35.296875 -6.929688 34.609375 -7.015625 C 34.585938 -9.984375 33.976562 -12.503906 32.78125 -14.578125 C 31.25 -17.128906 29.039062 -18.84375 26.15625 -19.71875 C 25.695312 -18.269531 25.222656 -16.820312 24.734375 -15.375 C 24.242188 -13.9375 23.71875 -12.503906 23.15625 -11.078125 C 22.601562 -9.648438 22 -8.25 21.34375 -6.875 C 20.695312 -5.5 19.910156 -4.203125 18.984375 -2.984375 C 17.378906 -0.742188 15.226562 0.425781 12.53125 0.53125 Z M 22.078125 -20.28125 C 21.398438 -20.3125 20.734375 -20.242188 20.078125 -20.078125 C 18.285156 -19.972656 16.554688 -19.59375 14.890625 -18.9375 C 14.953125 -18.75 15.023438 -18.5625 15.109375 -18.375 C 16.378906 -14.75 17.941406 -11.273438 19.796875 -7.953125 C 20.390625 -9.234375 20.929688 -10.53125 21.421875 -11.84375 C 21.941406 -13.195312 22.441406 -14.5625 22.921875 -15.9375 C 23.398438 -17.3125 23.851562 -18.691406 24.28125 -20.078125 C 23.550781 -20.242188 22.816406 -20.3125 22.078125 -20.28125 Z M 18.609375 -6.078125 C 16.484375 -9.785156 14.71875 -13.640625 13.3125 -17.640625 C 13.25 -17.796875 13.191406 -17.941406 13.140625 -18.078125 C 11.566406 -17.179688 10.257812 -15.945312 9.21875 -14.375 C 7.507812 -11.894531 7.007812 -9.195312 7.71875 -6.28125 C 7.988281 -5.195312 8.445312 -4.195312 9.09375 -3.28125 C 9.75 -2.375 10.648438 -1.769531 11.796875 -1.46875 C 12.941406 -1.300781 14.007812 -1.476562 15 -2 C 15.988281 -2.519531 16.828125 -3.210938 17.515625 -4.078125 C 17.941406 -4.679688 18.347656 -5.296875 18.734375 -5.921875 C 18.679688 -5.972656 18.640625 -6.023438 18.609375 -6.078125 Z M 18.609375 -6.078125 "/></g></g></g><g clip-path="url(#a93c517afe)"><path fill="#ffffff" d="M 139.394531 72.390625 L 246.566406 72.390625 L 246.566406 99.566406 L 139.394531 99.566406 Z M 139.394531 72.390625 " fill-opacity="1" fill-rule="nonzero"/></g><g fill="#1a1a1a" fill-opacity="1"><g transform="translate(174.202723, 92.539597)"><g><path d="M 1.734375 0 L 1.734375 -2.84375 L 4.1875 -2.84375 L 4.1875 0 Z M 1.734375 0 "/></g></g></g><g fill="#1a1a1a" fill-opacity="1"><g transform="translate(180.146533, 92.539597)"><g><path d="M 7.703125 -3.484375 L 7.703125 -6.328125 C 7.703125 -6.898438 7.457031 -7.40625 6.96875 -7.84375 C 6.476562 -8.289062 5.90625 -8.515625 5.25 -8.515625 C 3.601562 -8.515625 2.78125 -7.3125 2.78125 -4.90625 C 2.78125 -3.707031 2.992188 -2.8125 3.421875 -2.21875 C 3.859375 -1.625 4.46875 -1.328125 5.25 -1.328125 C 5.90625 -1.328125 6.476562 -1.546875 6.96875 -1.984375 C 7.457031 -2.421875 7.703125 -2.921875 7.703125 -3.484375 Z M 0.796875 -4.90625 C 0.796875 -6.519531 1.15625 -7.773438 1.875 -8.671875 C 2.601562 -9.578125 3.566406 -10.03125 4.765625 -10.03125 C 5.867188 -10.03125 6.832031 -9.613281 7.65625 -8.78125 L 7.703125 -8.78125 L 7.703125 -14.1875 L 9.671875 -14.1875 L 9.671875 0 L 7.828125 0 L 7.796875 -1.234375 L 7.75 -1.234375 C 7.269531 -0.703125 6.804688 -0.332031 6.359375 -0.125 C 5.910156 0.0820312 5.378906 0.1875 4.765625 0.1875 C 3.617188 0.1875 2.671875 -0.269531 1.921875 -1.1875 C 1.171875 -2.101562 0.796875 -3.34375 0.796875 -4.90625 Z M 0.796875 -4.90625 "/></g></g></g><g fill="#1a1a1a" fill-opacity="1"><g transform="translate(191.277331, 92.539597)"><g><path d="M 2.703125 -5.8125 L 7.25 -5.8125 C 7.21875 -7.632812 6.519531 -8.546875 5.15625 -8.546875 C 4.40625 -8.546875 3.828125 -8.328125 3.421875 -7.890625 C 3.023438 -7.460938 2.785156 -6.769531 2.703125 -5.8125 Z M 2.703125 -4.359375 C 2.816406 -2.316406 3.847656 -1.296875 5.796875 -1.296875 C 6.648438 -1.296875 7.566406 -1.492188 8.546875 -1.890625 L 8.546875 -0.21875 C 7.503906 0.0507812 6.523438 0.1875 5.609375 0.1875 C 4.035156 0.1875 2.820312 -0.238281 1.96875 -1.09375 C 1.125 -1.945312 0.703125 -3.21875 0.703125 -4.90625 C 0.703125 -6.59375 1.082031 -7.867188 1.84375 -8.734375 C 2.601562 -9.597656 3.707031 -10.03125 5.15625 -10.03125 C 6.507812 -10.03125 7.523438 -9.625 8.203125 -8.8125 C 8.878906 -8 9.21875 -6.726562 9.21875 -5 C 9.21875 -4.832031 9.195312 -4.617188 9.15625 -4.359375 Z M 2.703125 -4.359375 "/></g></g></g><g fill="#1a1a1a" fill-opacity="1"><g transform="translate(201.282129, 92.539597)"><g><path d="M 2.765625 -9.828125 L 5.265625 -1.125 L 5.296875 -1.125 L 7.796875 -9.828125 L 9.875 -9.828125 L 6.546875 0 L 3.921875 0 L 0.609375 -9.828125 Z M 2.765625 -9.828125 "/></g></g></g></svg>